<svg xmlns="http://www.w3.org/2000/svg" xmlns:xlink="http://www.w3.org/1999/xlink" width="1920" zoomAndPan="magnify" viewBox="0 0 1440 809.999993" height="1080" preserveAspectRatio="xMidYMid meet" version="1.0"><defs><clipPath id="cf330192ae"><path d="M 933.59375 185.980469 L 1439.84375 185.980469 L 1439.84375 623.980469 L 933.59375 623.980469 Z M 933.59375 185.980469 " clip-rule="nonzero"/></clipPath><clipPath id="f7ddc2d87b"><path d="M 0 185.980469 L 438 185.980469 L 438 623.980469 L 0 623.980469 Z M 0 185.980469 " clip-rule="nonzero"/></clipPath><clipPath id="d72234abe0"><path d="M 466.515625 185.980469 L 905 185.980469 L 905 624.019531 L 466.515625 624.019531 Z M 466.515625 185.980469 " clip-rule="nonzero"/></clipPath></defs><g clip-path="url(#cf330192ae)"><path fill="#ffffff" d="M 1195.261719 200.667969 L 1313.195312 404.941406 L 1313.195312 404.976562 L 1431.132812 609.25 L 1439.621094 623.953125 L 933.929688 623.953125 L 942.417969 609.25 L 1060.355469 404.976562 L 1060.355469 404.941406 L 1178.289062 200.667969 L 1186.777344 185.976562 Z M 1296.246094 414.757812 L 1296.226562 414.769531 L 1186.777344 225.191406 L 1077.324219 414.769531 L 1077.304688 414.757812 L 967.878906 604.296875 L 1405.675781 604.296875 L 1296.246094 414.757812 " fill-opacity="1" fill-rule="nonzero"/></g><g clip-path="url(#f7ddc2d87b)"><path fill="#ffffff" d="M 218.992188 185.980469 C 279.46875 185.980469 334.21875 210.492188 373.847656 250.121094 C 413.480469 289.753906 437.992188 344.503906 437.992188 404.972656 C 437.992188 465.445312 413.480469 520.195312 373.847656 559.824219 C 334.21875 599.460938 279.46875 623.972656 218.992188 623.972656 C 158.523438 623.972656 103.777344 599.460938 64.140625 559.824219 C 24.511719 520.195312 0 465.445312 0 404.972656 C 0 344.503906 24.511719 289.753906 64.140625 250.121094 C 103.777344 210.492188 158.523438 185.980469 218.992188 185.980469 Z M 356.644531 267.328125 C 321.417969 232.101562 272.75 210.3125 218.992188 210.3125 C 165.242188 210.3125 116.574219 232.101562 81.351562 267.328125 C 46.121094 302.554688 24.332031 351.214844 24.332031 404.972656 C 24.332031 458.730469 46.121094 507.398438 81.351562 542.621094 C 116.574219 577.851562 165.242188 599.640625 218.992188 599.640625 C 272.75 599.640625 321.417969 577.851562 356.644531 542.621094 C 391.871094 507.398438 413.660156 458.730469 413.660156 404.972656 C 413.660156 351.214844 391.871094 302.554688 356.644531 267.328125 " fill-opacity="1" fill-rule="nonzero"/></g><g clip-path="url(#d72234abe0)"><path fill="#e34060" d="M 466.515625 185.980469 L 904.554688 185.980469 L 904.554688 624.019531 L 466.515625 624.019531 Z M 466.515625 185.980469 " fill-opacity="1" fill-rule="nonzero"/></g></svg>